HIERARCHY
ROOT RootJoint
{
    OFFSET   0.000000   0.000000   0.000000
    CHANNELS 6 Xposition Yposition Zposition Xrotation Yrotation Zrotation
    JOINT pelvis_lowerback
    {
        OFFSET   0.000000   0.093605   0.000000
        CHANNELS 3 Xrotation Yrotation Zrotation
        JOINT lowerback_torso
        {
            OFFSET   0.000000   0.100000   0.000000
            CHANNELS 3 Xrotation Yrotation Zrotation
            JOINT torso_head
            {
                OFFSET   0.000000   0.282350   0.000000
                CHANNELS 3 Xrotation Yrotation Zrotation
                End Site
                {
                    OFFSET   0.000000   0.192650   0.000000
                }
            }
            JOINT rTorso_Clavicle
            {
                OFFSET  -0.001000   0.157500   0.000000
                CHANNELS 3 Xrotation Yrotation Zrotation
                JOINT rShoulder
                {
                    OFFSET  -0.117647   0.000000   0.000000
                    CHANNELS 3 Xrotation Yrotation Zrotation
                    JOINT rElbow
                    {
                        OFFSET  -0.245000   0.000000   0.000000
                        CHANNELS 3 Xrotation Yrotation Zrotation
                        JOINT rWrist
                        {
                            OFFSET  -0.240000   0.000000   0.000000
                            CHANNELS 3 Xrotation Yrotation Zrotation
                            End Site
                            {
                                OFFSET  -0.116353  -0.002500   0.000000
                            }
                        }
                    }
                }
            }
            JOINT lTorso_Clavicle
            {
                OFFSET   0.001000   0.157500   0.000000
                CHANNELS 3 Xrotation Yrotation Zrotation
                JOINT lShoulder
                {
                    OFFSET   0.117647   0.000000   0.000000
                    CHANNELS 3 Xrotation Yrotation Zrotation
                    JOINT lElbow
                    {
                        OFFSET   0.245000   0.000000   0.000000
                        CHANNELS 3 Xrotation Yrotation Zrotation
                        JOINT lWrist
                        {
                            OFFSET   0.240000   0.000000   0.000000
                            CHANNELS 3 Xrotation Yrotation Zrotation
                            End Site
                            {
                                OFFSET   0.116353  -0.002500   0.000000
                            }
                        }
                    }
                }
            }
        }
    }
    JOINT rHip
    {
        OFFSET  -0.100000  -0.051395   0.000000
        CHANNELS 3 Xrotation Yrotation Zrotation
        JOINT rKnee
        {
            OFFSET   0.000000  -0.410000   0.000000
            CHANNELS 3 Xrotation Yrotation Zrotation
            JOINT rAnkle
            {
                OFFSET   0.000000  -0.390000   0.000000
                CHANNELS 3 Xrotation Yrotation Zrotation
                JOINT rToeJoint
                {
                    OFFSET   0.000000  -0.050000   0.130000
                    CHANNELS 3 Xrotation Yrotation Zrotation
                    End Site
                    {
                        OFFSET  -0.010000   0.002000   0.060000
                    }
                }
            }
        }
    }
    JOINT lHip
    {
        OFFSET   0.100000  -0.051395   0.000000
        CHANNELS 3 Xrotation Yrotation Zrotation
        JOINT lKnee
        {
            OFFSET   0.000000  -0.410000   0.000000
            CHANNELS 3 Xrotation Yrotation Zrotation
            JOINT lAnkle
            {
                OFFSET   0.000000  -0.390000   0.000000
                CHANNELS 3 Xrotation Yrotation Zrotation
                JOINT lToeJoint
                {
                    OFFSET   0.000000  -0.050000   0.130000
                    CHANNELS 3 Xrotation Yrotation Zrotation
                    End Site
                    {
                        OFFSET   0.010000   0.002000   0.060000
                    }
                }
            }
        }
    }
}
MOTION
Frames: 12
Frame Time:   0.008333
 -2.376719   0.925631   3.975860   0.000000   0.000000   0.000000   0.000000   0.000000   0.000000   0.000000   0.000000   0.000000   0.000000   0.000000   0.000000   0.000000   0.000000   0.000000   0.000000   0.000000   0.000000   0.000000   0.000000   0.000000   0.000000   0.000000   0.000000   0.000000   0.000000   0.000000   0.000000   0.000000   0.000000   0.000000   0.000000   0.000000   0.000000   0.000000   0.000000   0.000000   0.000000   0.000000   0.000000   0.000000   0.000000   0.000000   0.000000   0.000000   0.000000   0.000000   0.000000   0.000000   0.000000   0.000000   0.000000   0.000000   0.000000   0.000000   0.000000   0.000000   0.000000   0.000000   0.000000
 -2.376729   0.926292   3.975610  -0.406038   0.133816  -0.231913   0.440803  -0.009016   0.256588   0.253461  -0.145351   0.084720  -0.231555   0.153198   0.077770   0.174462  -0.258603   0.239832   0.622142   0.108728   2.108732   0.021634   1.004467  -0.009666   0.376708  -0.426835  -2.815753   0.159358   0.039726  -0.733610   0.841637   0.013435  -1.934436   0.018704  -0.833926   0.009516   0.386772   0.403707   3.001199   0.124827   0.152506   0.121631   0.770753   0.000761   0.001916  -0.740262  -0.252602  -0.108447  -0.392482  -0.000744  -0.000117   0.108035   0.035380   0.427049   1.119300  -0.001883   0.001672  -1.051649   0.075270  -0.156781   0.447086  -0.000149   0.000946
 -2.376755   0.927404   3.975285  -0.868184   0.311730  -0.480467   0.903108  -0.046882   0.527064   0.586875  -0.323753   0.187906  -0.428345   0.301866   0.180163   0.347662  -0.461408   1.205801   1.224926   0.288509   4.795914   0.049958   1.982528  -0.017351   0.784150  -0.564951  -4.905325   0.318972  -0.010316  -2.245991   1.661964  -0.080861  -4.506795   0.043633  -1.652814   0.017268   0.805922   0.567535   5.229775   0.232215   0.302944   0.144605   1.585585   0.002313   0.003803  -1.433569  -0.488469  -0.213419  -0.803823  -0.001781  -0.000434   0.292079   0.081664   1.011112   2.322805  -0.004897   0.003829  -2.030293   0.152931  -0.300140   0.832651  -0.000743   0.001772
 -2.376797   0.928529   3.974941  -1.313479   0.505076  -0.711190   1.351211  -0.105862   0.777508   0.921684  -0.517609   0.279428  -0.606877   0.440574   0.286394   0.510801  -0.604559   2.626372   1.803360   0.529610   7.866883   0.077787   2.908310  -0.022690   1.184455  -0.582284  -6.150039   0.462085  -0.132698  -4.217866   2.446785  -0.270065  -7.457979   0.068428  -2.436751   0.022960   1.217865   0.585999   6.540801   0.285701   0.442374   0.053611   2.346489   0.004151   0.005113  -2.081463  -0.708447  -0.314885  -1.189704  -0.002852  -0.000743   0.514024   0.133340   1.689052   3.479680  -0.008181   0.005840  -2.942117   0.230087  -0.431446   1.184663  -0.001523   0.002425
 -2.376890   0.929334   3.974624  -1.727287   0.699458  -0.918751   1.779147  -0.179758   0.996247   1.239848  -0.719678   0.341762  -0.773622   0.569629   0.392832   0.662579  -0.702193   4.312592   2.357357   0.825499  11.200115   0.101798   3.780708  -0.026078   1.574345  -0.531039  -6.756479   0.584310  -0.305015  -6.476446   3.163845  -0.530750 -10.519516   0.089702  -3.183788   0.026770   1.622961   0.495760   7.111180   0.286369   0.571185  -0.134072   3.041574   0.005920   0.005841  -2.687910  -0.913829  -0.412754  -1.552126  -0.003845  -0.000988   0.761298   0.188461   2.436124   4.572978  -0.011345   0.007522  -3.793333   0.305703  -0.551798   1.501206  -0.002321   0.002874
 -2.377015   0.929561   3.974369  -2.107919   0.886823  -1.107820   2.184523  -0.264195   1.186682   1.537346  -0.925384   0.386989  -0.929456   0.689645   0.490695   0.803393  -0.769186   6.172507   2.864380   1.156113  14.584392   0.120176   4.600672  -0.027731   1.952485  -0.433254  -6.863866   0.683362  -0.506303  -8.874998   3.814005  -0.844328 -13.584478   0.106104  -3.892309   0.029086   2.018714   0.328542   7.179493   0.242769   0.690841  -0.398726   3.674619   0.007456   0.006099  -3.255605  -1.105457  -0.506757  -1.891436  -0.004701  -0.001157   1.028590   0.246042   3.235298   5.604136  -0.014151   0.008839  -4.588177   0.379267  -0.662038   1.785429  -0.003034   0.003142
 -2.377146   0.929020   3.974198  -2.457105   1.061481  -1.282038   2.565913  -0.356405   1.355807   1.813741  -1.132113   0.423722  -1.074502   0.801336   0.579063   0.934406  -0.819633   8.118218   3.317599   1.503009  17.893955   0.132489   5.368988  -0.027959   2.316183  -0.308351  -6.624028   0.759932  -0.719414 -11.314553   4.400057  -1.193338 -16.586274   0.117364  -4.561443   0.030232   2.401962   0.110888   6.923010   0.163654   0.802844  -0.724761   4.251893   0.008695   0.006007  -3.786864  -1.284173  -0.596760  -2.207732  -0.005392  -0.001250   1.312592   0.305640   4.070109   6.577194  -0.016475   0.009792  -5.330258   0.450370  -0.763016   2.041606  -0.003615   0.003260
 -2.377136   0.927002   3.973562  -2.549491   1.153647  -1.436552   2.812944  -0.430848   1.565428   1.972432  -1.344384   0.405023  -1.346875   0.736231   0.590402   1.056572  -0.648400   9.481992   3.708680   1.800921  20.919425   0.137288   6.153268  -0.028092   2.581192  -0.258305  -5.315270   0.898860  -0.918396 -12.928056   4.724011  -1.486036 -19.626597   0.121799  -5.232684   0.030187   2.716314  -0.247841   5.692533  -0.324455   0.541564  -1.095859   5.192217   0.011297   0.002833  -4.061486  -1.499260  -0.486179  -2.205128  -0.004304  -0.001010   1.389651   0.466238   4.842144   6.880692  -0.014670   0.008753  -5.736241   0.696454  -0.861512   2.376998  -0.004302   0.004166
 -2.377067   0.923744   3.972783  -2.607804   1.261240  -1.579407   3.074807  -0.505470   1.775037   2.106318  -1.539578   0.387579  -1.615336   0.664858   0.594084   1.147921  -0.438857  10.537109   4.047343   2.122214  23.593122   0.135325   6.896631  -0.027774   2.836545  -0.174027  -4.141265   1.008412  -1.128017 -14.215533   5.007461  -1.780712 -22.323295   0.120050  -5.864862   0.029566   3.010854  -0.636860   4.571553  -0.792270   0.276396  -1.478546   6.102973   0.013135   0.000339  -4.309508  -1.705705  -0.384909  -2.160206  -0.003269  -0.000951   1.372552   0.614868   5.573171   7.043084  -0.012490   0.007503  -6.119465   0.928845  -0.950952   2.687025  -0.004669   0.004759
 -2.376967   0.919387   3.971973  -2.655286   1.376548  -1.714390   3.340095  -0.564206   1.979562   2.235785  -1.711243   0.376623  -1.863680   0.597284   0.597182   1.216805  -0.219651  11.372758   4.341635   2.447431  25.980315   0.129272   7.597331  -0.027084   3.084673  -0.062470  -3.225234   1.094065  -1.335670 -15.268138   5.256063  -2.069188 -24.732402   0.114571  -6.457920   0.028374   3.290104  -1.023185   3.703636  -1.201576   0.031710  -1.859680   6.961086   0.014234  -0.001411  -4.539899  -1.899185  -0.291526  -2.113804  -0.002439  -0.000895   1.286268   0.749038   6.267352   7.151987  -0.010470   0.006334  -6.478877   1.146346  -1.032667   2.968310  -0.004784   0.005060
 -2.376792   0.918646   3.971539  -2.826905   1.178558  -1.254009   3.660828  -0.496606   1.688955   2.418501  -1.781624   0.166370  -2.092092   0.537348   0.584269   1.252038   0.043041  12.380642   4.584714   2.801991  28.269381   0.123223   8.258351  -0.025891   3.326694   0.059633  -2.538276   1.175688  -1.512422 -16.353520   5.481336  -2.326879 -26.944767   0.108036  -6.994343   0.026860   3.547539  -1.303773   3.122470  -1.449824  -0.162524  -2.749159   7.766103   0.014033  -0.004662  -4.741860  -2.081560  -0.207485  -1.977229  -0.001518  -0.001442   1.131799   0.831940   5.807703   7.810844  -0.008343   0.004753  -6.575079   1.206873  -1.526297   2.248059  -0.006976   0.004176
 -2.377211   0.918438   3.971416  -2.944722   0.948325  -1.136163   3.903819  -0.426239   1.719070   2.569794  -1.822975   0.049935  -2.297787   0.480892   0.563178   1.282310   0.285231  13.169811   4.800243   3.142029  30.361198   0.115416   8.882446  -0.024119   3.560019   0.228439  -1.821440   1.268048  -1.648642 -17.299153   5.693101  -2.559635 -29.032553   0.100206  -7.495385   0.025044   3.790551  -1.575257   2.486879  -1.686566  -0.364288  -3.152148   8.522236   0.012651  -0.007149  -4.935586  -2.252715  -0.128994  -1.889768  -0.001048  -0.001637   1.035855   0.951241   5.724425   8.296210  -0.006830   0.003514  -6.718563   1.354679  -1.695098   1.826753  -0.006101   0.003074
